<svg height="4526" width="720" xmlns="http://www.w3.org/2000/svg">
<rect height="4526" fill="#555" width="720"></rect>
<text fill="#7f7" font-family="Courier New" font-size="12" xml:space="preserve">
<tspan x="10" y="26">58 megabytes installed</tspan>
<tspan x="10" y="42"></tspan>
<tspan x="10" y="58">node_modules</tspan>
<tspan x="10" y="74">└─┬ grunt-email-builder@4.0.0 </tspan>
<tspan x="10" y="90">  ├── bluebird@3.5.0 </tspan>
<tspan x="10" y="106">  └─┬ email-builder-core@2.1.0 </tspan>
<tspan x="10" y="122">    ├─┬ chalk@1.1.3 </tspan>
<tspan x="10" y="138">    │ ├── ansi-styles@2.2.1 </tspan>
<tspan x="10" y="154">    │ ├── escape-string-regexp@1.0.5 </tspan>
<tspan x="10" y="170">    │ ├─┬ has-ansi@2.0.0 </tspan>
<tspan x="10" y="186">    │ │ └── ansi-regex@2.1.1 </tspan>
<tspan x="10" y="202">    │ ├── strip-ansi@3.0.1 </tspan>
<tspan x="10" y="218">    │ └── supports-color@2.0.0 </tspan>
<tspan x="10" y="234">    ├─┬ cheerio@0.20.0 </tspan>
<tspan x="10" y="250">    │ ├─┬ css-select@1.2.0 </tspan>
<tspan x="10" y="266">    │ │ ├── boolbase@1.0.0 </tspan>
<tspan x="10" y="282">    │ │ ├── css-what@2.1.0 </tspan>
<tspan x="10" y="298">    │ │ ├── domutils@1.5.1 </tspan>
<tspan x="10" y="314">    │ │ └── nth-check@1.0.1 </tspan>
<tspan x="10" y="330">    │ ├─┬ dom-serializer@0.1.0 </tspan>
<tspan x="10" y="346">    │ │ └── domelementtype@1.1.3 </tspan>
<tspan x="10" y="362">    │ ├── entities@1.1.1 </tspan>
<tspan x="10" y="378">    │ ├─┬ htmlparser2@3.8.3 </tspan>
<tspan x="10" y="394">    │ │ ├── domelementtype@1.3.0 </tspan>
<tspan x="10" y="410">    │ │ ├── domhandler@2.3.0 </tspan>
<tspan x="10" y="426">    │ │ ├── entities@1.0.0 </tspan>
<tspan x="10" y="442">    │ │ └─┬ readable-stream@1.1.14 </tspan>
<tspan x="10" y="458">    │ │   ├── core-util-is@1.0.2 </tspan>
<tspan x="10" y="474">    │ │   ├── isarray@0.0.1 </tspan>
<tspan x="10" y="490">    │ │   └── string_decoder@0.10.31 </tspan>
<tspan x="10" y="506">    │ └─┬ jsdom@7.2.2 </tspan>
<tspan x="10" y="522">    │   ├── abab@1.0.3 </tspan>
<tspan x="10" y="538">    │   ├── acorn@2.7.0 </tspan>
<tspan x="10" y="554">    │   ├── acorn-globals@1.0.9 </tspan>
<tspan x="10" y="570">    │   ├── cssom@0.3.2 </tspan>
<tspan x="10" y="586">    │   ├── cssstyle@0.2.37 </tspan>
<tspan x="10" y="602">    │   ├─┬ escodegen@1.8.1 </tspan>
<tspan x="10" y="618">    │   │ ├── esprima@2.7.3 </tspan>
<tspan x="10" y="634">    │   │ ├── estraverse@1.9.3 </tspan>
<tspan x="10" y="650">    │   │ ├── esutils@2.0.2 </tspan>
<tspan x="10" y="666">    │   │ ├─┬ optionator@0.8.2 </tspan>
<tspan x="10" y="682">    │   │ │ ├── deep-is@0.1.3 </tspan>
<tspan x="10" y="698">    │   │ │ ├── fast-levenshtein@2.0.6 </tspan>
<tspan x="10" y="714">    │   │ │ ├── levn@0.3.0 </tspan>
<tspan x="10" y="730">    │   │ │ ├── prelude-ls@1.1.2 </tspan>
<tspan x="10" y="746">    │   │ │ ├── type-check@0.3.2 </tspan>
<tspan x="10" y="762">    │   │ │ └── wordwrap@1.0.0 </tspan>
<tspan x="10" y="778">    │   │ └─┬ source-map@0.2.0 </tspan>
<tspan x="10" y="794">    │   │   └── amdefine@1.0.1 </tspan>
<tspan x="10" y="810">    │   ├── nwmatcher@1.3.9 </tspan>
<tspan x="10" y="826">    │   ├── parse5@1.5.1 </tspan>
<tspan x="10" y="842">    │   ├── sax@1.2.2 </tspan>
<tspan x="10" y="858">    │   ├── symbol-tree@3.2.2 </tspan>
<tspan x="10" y="874">    │   ├─┬ tough-cookie@2.3.2 </tspan>
<tspan x="10" y="890">    │   │ └── punycode@1.4.1 </tspan>
<tspan x="10" y="906">    │   ├── webidl-conversions@2.0.1 </tspan>
<tspan x="10" y="922">    │   ├─┬ whatwg-url-compat@0.6.5 </tspan>
<tspan x="10" y="938">    │   │ └── tr46@0.0.3 </tspan>
<tspan x="10" y="954">    │   └── xml-name-validator@2.0.1 </tspan>
<tspan x="10" y="970">    ├─┬ cli-table@0.3.1 </tspan>
<tspan x="10" y="986">    │ └── colors@1.0.3 </tspan>
<tspan x="10" y="1002">    ├─┬ dateformat@1.0.12 </tspan>
<tspan x="10" y="1018">    │ ├── get-stdin@4.0.1 </tspan>
<tspan x="10" y="1034">    │ └─┬ meow@3.7.0 </tspan>
<tspan x="10" y="1050">    │   ├─┬ camelcase-keys@2.1.0 </tspan>
<tspan x="10" y="1066">    │   │ └── camelcase@2.1.1 </tspan>
<tspan x="10" y="1082">    │   ├── decamelize@1.2.0 </tspan>
<tspan x="10" y="1098">    │   ├─┬ loud-rejection@1.6.0 </tspan>
<tspan x="10" y="1114">    │   │ ├─┬ currently-unhandled@0.4.1 </tspan>
<tspan x="10" y="1130">    │   │ │ └── array-find-index@1.0.2 </tspan>
<tspan x="10" y="1146">    │   │ └── signal-exit@3.0.2 </tspan>
<tspan x="10" y="1162">    │   ├── map-obj@1.0.1 </tspan>
<tspan x="10" y="1178">    │   ├── minimist@1.2.0 </tspan>
<tspan x="10" y="1194">    │   ├─┬ normalize-package-data@2.3.8 </tspan>
<tspan x="10" y="1210">    │   │ ├── hosted-git-info@2.4.2 </tspan>
<tspan x="10" y="1226">    │   │ ├─┬ is-builtin-module@1.0.0 </tspan>
<tspan x="10" y="1242">    │   │ │ └── builtin-modules@1.1.1 </tspan>
<tspan x="10" y="1258">    │   │ ├── semver@5.3.0 </tspan>
<tspan x="10" y="1274">    │   │ └─┬ validate-npm-package-license@3.0.1 </tspan>
<tspan x="10" y="1290">    │   │   ├─┬ spdx-correct@1.0.2 </tspan>
<tspan x="10" y="1306">    │   │   │ └── spdx-license-ids@1.2.2 </tspan>
<tspan x="10" y="1322">    │   │   └── spdx-expression-parse@1.0.4 </tspan>
<tspan x="10" y="1338">    │   ├── object-assign@4.1.1 </tspan>
<tspan x="10" y="1354">    │   ├─┬ read-pkg-up@1.0.1 </tspan>
<tspan x="10" y="1370">    │   │ ├─┬ find-up@1.1.2 </tspan>
<tspan x="10" y="1386">    │   │ │ ├── path-exists@2.1.0 </tspan>
<tspan x="10" y="1402">    │   │ │ └─┬ pinkie-promise@2.0.1 </tspan>
<tspan x="10" y="1418">    │   │ │   └── pinkie@2.0.4 </tspan>
<tspan x="10" y="1434">    │   │ └─┬ read-pkg@1.1.0 </tspan>
<tspan x="10" y="1450">    │   │   ├─┬ load-json-file@1.1.0 </tspan>
<tspan x="10" y="1466">    │   │   │ ├── graceful-fs@4.1.11 </tspan>
<tspan x="10" y="1482">    │   │   │ ├─┬ parse-json@2.2.0 </tspan>
<tspan x="10" y="1498">    │   │   │ │ └─┬ error-ex@1.3.1 </tspan>
<tspan x="10" y="1514">    │   │   │ │   └── is-arrayish@0.2.1 </tspan>
<tspan x="10" y="1530">    │   │   │ ├── pify@2.3.0 </tspan>
<tspan x="10" y="1546">    │   │   │ └─┬ strip-bom@2.0.0 </tspan>
<tspan x="10" y="1562">    │   │   │   └── is-utf8@0.2.1 </tspan>
<tspan x="10" y="1578">    │   │   └── path-type@1.1.0 </tspan>
<tspan x="10" y="1594">    │   ├─┬ redent@1.0.0 </tspan>
<tspan x="10" y="1610">    │   │ ├─┬ indent-string@2.1.0 </tspan>
<tspan x="10" y="1626">    │   │ │ └─┬ repeating@2.0.1 </tspan>
<tspan x="10" y="1642">    │   │ │   └─┬ is-finite@1.0.2 </tspan>
<tspan x="10" y="1658">    │   │ │     └── number-is-nan@1.0.1 </tspan>
<tspan x="10" y="1674">    │   │ └── strip-indent@1.0.1 </tspan>
<tspan x="10" y="1690">    │   └── trim-newlines@1.0.0 </tspan>
<tspan x="10" y="1706">    ├─┬ event-stream@3.3.4 </tspan>
<tspan x="10" y="1722">    │ ├── duplexer@0.1.1 </tspan>
<tspan x="10" y="1738">    │ ├── from@0.1.7 </tspan>
<tspan x="10" y="1754">    │ ├── map-stream@0.1.0 </tspan>
<tspan x="10" y="1770">    │ ├── pause-stream@0.0.11 </tspan>
<tspan x="10" y="1786">    │ ├── split@0.3.3 </tspan>
<tspan x="10" y="1802">    │ ├── stream-combiner@0.0.4 </tspan>
<tspan x="10" y="1818">    │ └── through@2.3.8 </tspan>
<tspan x="10" y="1834">    ├─┬ is-html@1.1.0 </tspan>
<tspan x="10" y="1850">    │ └── html-tags@1.1.1 </tspan>
<tspan x="10" y="1866">    ├─┬ juice@2.0.0 </tspan>
<tspan x="10" y="1882">    │ ├── batch@0.5.3 </tspan>
<tspan x="10" y="1898">    │ ├─┬ commander@2.9.0 </tspan>
<tspan x="10" y="1914">    │ │ └── graceful-readlink@1.0.1 </tspan>
<tspan x="10" y="1930">    │ ├─┬ cross-spawn-async@2.2.5 </tspan>
<tspan x="10" y="1946">    │ │ ├─┬ lru-cache@4.0.2 </tspan>
<tspan x="10" y="1962">    │ │ │ ├── pseudomap@1.0.2 </tspan>
<tspan x="10" y="1978">    │ │ │ └── yallist@2.1.2 </tspan>
<tspan x="10" y="1994">    │ │ └─┬ which@1.2.14 </tspan>
<tspan x="10" y="2010">    │ │   └── isexe@2.0.0 </tspan>
<tspan x="10" y="2026">    │ ├── cssom@0.3.1 </tspan>
<tspan x="10" y="2042">    │ ├── deep-extend@0.4.1 </tspan>
<tspan x="10" y="2058">    │ └── slick@1.12.2 </tspan>
<tspan x="10" y="2074">    ├─┬ litmus-api@0.3.2 </tspan>
<tspan x="10" y="2090">    │ ├── bluebird@1.2.4 </tspan>
<tspan x="10" y="2106">    │ └─┬ request@2.36.0 </tspan>
<tspan x="10" y="2122">    │   ├── aws-sign2@0.5.0 </tspan>
<tspan x="10" y="2138">    │   ├── forever-agent@0.5.2 </tspan>
<tspan x="10" y="2154">    │   ├─┬ form-data@0.1.4 </tspan>
<tspan x="10" y="2170">    │   │ └─┬ combined-stream@0.0.7 </tspan>
<tspan x="10" y="2186">    │   │   └── delayed-stream@0.0.5 </tspan>
<tspan x="10" y="2202">    │   ├─┬ hawk@1.0.0 </tspan>
<tspan x="10" y="2218">    │   │ ├── boom@0.4.2 </tspan>
<tspan x="10" y="2234">    │   │ ├── cryptiles@0.2.2 </tspan>
<tspan x="10" y="2250">    │   │ ├── hoek@0.9.1 </tspan>
<tspan x="10" y="2266">    │   │ └── sntp@0.2.4 </tspan>
<tspan x="10" y="2282">    │   ├─┬ http-signature@0.10.1 </tspan>
<tspan x="10" y="2298">    │   │ ├── asn1@0.1.11 </tspan>
<tspan x="10" y="2314">    │   │ ├── assert-plus@0.1.5 </tspan>
<tspan x="10" y="2330">    │   │ └── ctype@0.5.3 </tspan>
<tspan x="10" y="2346">    │   ├── json-stringify-safe@5.0.1 </tspan>
<tspan x="10" y="2362">    │   ├── mime@1.2.11 </tspan>
<tspan x="10" y="2378">    │   ├── node-uuid@1.4.8 </tspan>
<tspan x="10" y="2394">    │   ├── oauth-sign@0.3.0 </tspan>
<tspan x="10" y="2410">    │   ├── qs@0.6.6 </tspan>
<tspan x="10" y="2426">    │   └── tunnel-agent@0.4.3 </tspan>
<tspan x="10" y="2442">    ├── lodash@4.17.4 </tspan>
<tspan x="10" y="2458">    ├─┬ nodemailer@2.4.2 </tspan>
<tspan x="10" y="2474">    │ ├─┬ libmime@2.0.3 </tspan>
<tspan x="10" y="2490">    │ │ ├── iconv-lite@0.4.13 </tspan>
<tspan x="10" y="2506">    │ │ ├── libbase64@0.1.0 </tspan>
<tspan x="10" y="2522">    │ │ └── libqp@1.1.0 </tspan>
<tspan x="10" y="2538">    │ ├─┬ mailcomposer@3.9.0 </tspan>
<tspan x="10" y="2554">    │ │ └─┬ buildmail@3.7.0 </tspan>
<tspan x="10" y="2570">    │ │   └── addressparser@1.0.1 </tspan>
<tspan x="10" y="2586">    │ ├─┬ nodemailer-direct-transport@3.1.0 </tspan>
<tspan x="10" y="2602">    │ │ └─┬ smtp-connection@2.5.0 </tspan>
<tspan x="10" y="2618">    │ │   └─┬ httpntlm@1.6.1 </tspan>
<tspan x="10" y="2634">    │ │     ├── httpreq@0.4.23 </tspan>
<tspan x="10" y="2650">    │ │     └── underscore@1.7.0 </tspan>
<tspan x="10" y="2666">    │ ├─┬ nodemailer-shared@1.0.5 </tspan>
<tspan x="10" y="2682">    │ │ └── nodemailer-fetch@1.4.0 </tspan>
<tspan x="10" y="2698">    │ ├─┬ nodemailer-smtp-pool@2.6.0 </tspan>
<tspan x="10" y="2714">    │ │ └── nodemailer-wellknown@0.1.9 </tspan>
<tspan x="10" y="2730">    │ ├── nodemailer-smtp-transport@2.5.0 </tspan>
<tspan x="10" y="2746">    │ └─┬ socks@1.1.9 </tspan>
<tspan x="10" y="2762">    │   ├── ip@1.1.5 </tspan>
<tspan x="10" y="2778">    │   └── smart-buffer@1.1.15 </tspan>
<tspan x="10" y="2794">    ├── special-html@0.0.1 </tspan>
<tspan x="10" y="2810">    ├─┬ web-resource-inliner@2.0.0 </tspan>
<tspan x="10" y="2826">    │ ├── async@0.9.2 </tspan>
<tspan x="10" y="2842">    │ ├─┬ clean-css@1.1.7 </tspan>
<tspan x="10" y="2858">    │ │ └── commander@2.0.0 </tspan>
<tspan x="10" y="2874">    │ ├─┬ cli-color@0.3.3 </tspan>
<tspan x="10" y="2890">    │ │ ├── d@0.1.1 </tspan>
<tspan x="10" y="2906">    │ │ ├─┬ es5-ext@0.10.15 </tspan>
<tspan x="10" y="2922">    │ │ │ ├─┬ es6-iterator@2.0.1 </tspan>
<tspan x="10" y="2938">    │ │ │ │ └── d@1.0.0 </tspan>
<tspan x="10" y="2954">    │ │ │ └─┬ es6-symbol@3.1.1 </tspan>
<tspan x="10" y="2970">    │ │ │   └── d@1.0.0 </tspan>
<tspan x="10" y="2986">    │ │ ├─┬ memoizee@0.3.10 </tspan>
<tspan x="10" y="3002">    │ │ │ ├─┬ es6-weak-map@0.1.4 </tspan>
<tspan x="10" y="3018">    │ │ │ │ ├── es6-iterator@0.1.3 </tspan>
<tspan x="10" y="3034">    │ │ │ │ └── es6-symbol@2.0.1 </tspan>
<tspan x="10" y="3050">    │ │ │ ├─┬ event-emitter@0.3.5 </tspan>
<tspan x="10" y="3066">    │ │ │ │ └── d@1.0.0 </tspan>
<tspan x="10" y="3082">    │ │ │ ├── lru-queue@0.1.0 </tspan>
<tspan x="10" y="3098">    │ │ │ └── next-tick@0.2.2 </tspan>
<tspan x="10" y="3114">    │ │ └─┬ timers-ext@0.1.2 </tspan>
<tspan x="10" y="3130">    │ │   └── next-tick@1.0.0 </tspan>
<tspan x="10" y="3146">    │ ├─┬ datauri@0.2.1 </tspan>
<tspan x="10" y="3162">    │ │ ├── mimer@0.2.1 </tspan>
<tspan x="10" y="3178">    │ │ └── templayed@0.2.3 </tspan>
<tspan x="10" y="3194">    │ ├─┬ htmlparser2@3.9.2 </tspan>
<tspan x="10" y="3210">    │ │ ├── inherits@2.0.3 </tspan>
<tspan x="10" y="3226">    │ │ └─┬ readable-stream@2.2.9 </tspan>
<tspan x="10" y="3242">    │ │   ├── buffer-shims@1.0.0 </tspan>
<tspan x="10" y="3258">    │ │   ├── isarray@1.0.0 </tspan>
<tspan x="10" y="3274">    │ │   ├── process-nextick-args@1.0.7 </tspan>
<tspan x="10" y="3290">    │ │   ├── string_decoder@1.0.0 </tspan>
<tspan x="10" y="3306">    │ │   └── util-deprecate@1.0.2 </tspan>
<tspan x="10" y="3322">    │ ├── lodash@3.10.1 </tspan>
<tspan x="10" y="3338">    │ ├─┬ request@2.81.0 </tspan>
<tspan x="10" y="3354">    │ │ ├── aws-sign2@0.6.0 </tspan>
<tspan x="10" y="3370">    │ │ ├── aws4@1.6.0 </tspan>
<tspan x="10" y="3386">    │ │ ├── caseless@0.12.0 </tspan>
<tspan x="10" y="3402">    │ │ ├─┬ combined-stream@1.0.5 </tspan>
<tspan x="10" y="3418">    │ │ │ └── delayed-stream@1.0.0 </tspan>
<tspan x="10" y="3434">    │ │ ├── extend@3.0.0 </tspan>
<tspan x="10" y="3450">    │ │ ├── forever-agent@0.6.1 </tspan>
<tspan x="10" y="3466">    │ │ ├─┬ form-data@2.1.4 </tspan>
<tspan x="10" y="3482">    │ │ │ └── asynckit@0.4.0 </tspan>
<tspan x="10" y="3498">    │ │ ├─┬ har-validator@4.2.1 </tspan>
<tspan x="10" y="3514">    │ │ │ ├─┬ ajv@4.11.7 </tspan>
<tspan x="10" y="3530">    │ │ │ │ ├── co@4.6.0 </tspan>
<tspan x="10" y="3546">    │ │ │ │ └─┬ json-stable-stringify@1.0.1 </tspan>
<tspan x="10" y="3562">    │ │ │ │   └── jsonify@0.0.0 </tspan>
<tspan x="10" y="3578">    │ │ │ └── har-schema@1.0.5 </tspan>
<tspan x="10" y="3594">    │ │ ├─┬ hawk@3.1.3 </tspan>
<tspan x="10" y="3610">    │ │ │ ├── boom@2.10.1 </tspan>
<tspan x="10" y="3626">    │ │ │ ├── cryptiles@2.0.5 </tspan>
<tspan x="10" y="3642">    │ │ │ ├── hoek@2.16.3 </tspan>
<tspan x="10" y="3658">    │ │ │ └── sntp@1.0.9 </tspan>
<tspan x="10" y="3674">    │ │ ├─┬ http-signature@1.1.1 </tspan>
<tspan x="10" y="3690">    │ │ │ ├── assert-plus@0.2.0 </tspan>
<tspan x="10" y="3706">    │ │ │ ├─┬ jsprim@1.4.0 </tspan>
<tspan x="10" y="3722">    │ │ │ │ ├── assert-plus@1.0.0 </tspan>
<tspan x="10" y="3738">    │ │ │ │ ├── extsprintf@1.0.2 </tspan>
<tspan x="10" y="3754">    │ │ │ │ ├── json-schema@0.2.3 </tspan>
<tspan x="10" y="3770">    │ │ │ │ └── verror@1.3.6 </tspan>
<tspan x="10" y="3786">    │ │ │ └─┬ sshpk@1.13.0 </tspan>
<tspan x="10" y="3802">    │ │ │   ├── asn1@0.2.3 </tspan>
<tspan x="10" y="3818">    │ │ │   ├── assert-plus@1.0.0 </tspan>
<tspan x="10" y="3834">    │ │ │   ├── bcrypt-pbkdf@1.0.1 </tspan>
<tspan x="10" y="3850">    │ │ │   ├─┬ dashdash@1.14.1 </tspan>
<tspan x="10" y="3866">    │ │ │   │ └── assert-plus@1.0.0 </tspan>
<tspan x="10" y="3882">    │ │ │   ├── ecc-jsbn@0.1.1 </tspan>
<tspan x="10" y="3898">    │ │ │   ├─┬ getpass@0.1.7 </tspan>
<tspan x="10" y="3914">    │ │ │   │ └── assert-plus@1.0.0 </tspan>
<tspan x="10" y="3930">    │ │ │   ├── jodid25519@1.0.2 </tspan>
<tspan x="10" y="3946">    │ │ │   ├── jsbn@0.1.1 </tspan>
<tspan x="10" y="3962">    │ │ │   └── tweetnacl@0.14.5 </tspan>
<tspan x="10" y="3978">    │ │ ├── is-typedarray@1.0.0 </tspan>
<tspan x="10" y="3994">    │ │ ├─┬ mime-types@2.1.15 </tspan>
<tspan x="10" y="4010">    │ │ │ └── mime-db@1.27.0 </tspan>
<tspan x="10" y="4026">    │ │ ├── oauth-sign@0.8.2 </tspan>
<tspan x="10" y="4042">    │ │ ├── performance-now@0.2.0 </tspan>
<tspan x="10" y="4058">    │ │ ├── qs@6.4.0 </tspan>
<tspan x="10" y="4074">    │ │ ├── safe-buffer@5.0.1 </tspan>
<tspan x="10" y="4090">    │ │ ├── stringstream@0.0.5 </tspan>
<tspan x="10" y="4106">    │ │ ├── tunnel-agent@0.6.0 </tspan>
<tspan x="10" y="4122">    │ │ └── uuid@3.0.1 </tspan>
<tspan x="10" y="4138">    │ ├─┬ uglify-js@2.8.22 </tspan>
<tspan x="10" y="4154">    │ │ ├── source-map@0.5.6 </tspan>
<tspan x="10" y="4170">    │ │ ├── uglify-to-browserify@1.0.2 </tspan>
<tspan x="10" y="4186">    │ │ └─┬ yargs@3.10.0 </tspan>
<tspan x="10" y="4202">    │ │   ├── camelcase@1.2.1 </tspan>
<tspan x="10" y="4218">    │ │   ├─┬ cliui@2.1.0 </tspan>
<tspan x="10" y="4234">    │ │   │ ├─┬ center-align@0.1.3 </tspan>
<tspan x="10" y="4250">    │ │   │ │ ├─┬ align-text@0.1.4 </tspan>
<tspan x="10" y="4266">    │ │   │ │ │ ├─┬ kind-of@3.2.0 </tspan>
<tspan x="10" y="4282">    │ │   │ │ │ │ └── is-buffer@1.1.5 </tspan>
<tspan x="10" y="4298">    │ │   │ │ │ ├── longest@1.0.1 </tspan>
<tspan x="10" y="4314">    │ │   │ │ │ └── repeat-string@1.6.1 </tspan>
<tspan x="10" y="4330">    │ │   │ │ └── lazy-cache@1.0.4 </tspan>
<tspan x="10" y="4346">    │ │   │ ├── right-align@0.1.3 </tspan>
<tspan x="10" y="4362">    │ │   │ └── wordwrap@0.0.2 </tspan>
<tspan x="10" y="4378">    │ │   └── window-size@0.1.0 </tspan>
<tspan x="10" y="4394">    │ └── xtend@4.0.1 </tspan>
<tspan x="10" y="4410">    ├─┬ winston@2.3.1 </tspan>
<tspan x="10" y="4426">    │ ├── async@1.0.0 </tspan>
<tspan x="10" y="4442">    │ ├── cycle@1.0.3 </tspan>
<tspan x="10" y="4458">    │ ├── eyes@0.1.8 </tspan>
<tspan x="10" y="4474">    │ ├── isstream@0.1.2 </tspan>
<tspan x="10" y="4490">    │ └── stack-trace@0.0.9 </tspan>
<tspan x="10" y="4506">    └── xmlbuilder@8.2.2</tspan>
</text>
</svg>
